<?xml version="1.0" encoding="UTF-8" standalone="no"?>
<!-- Created with Inkscape (http://www.inkscape.org/) -->

<svg
   width="1000"
   height="1000"
   viewBox="0 0 1000 1000"
   version="1.1"
   id="svg9042"
   xmlns="http://www.w3.org/2000/svg"
   xmlns:svg="http://www.w3.org/2000/svg">
  <defs
     id="defs9039" />
  <g
     id="layer1">
    <path
       id="path1153"
       style="fill:#DEDEDE;stroke-width:2.22845"
       d="M 301.48828,5 122.37109,106.03906 V 780.66992 L 499.99805,995 877.62891,780.66992 V 106.03906 L 699.02148,5 Z m 5.61328,51.03125 h 385.79688 l 133.70117,75.52344 V 755.15625 L 499.99805,943.96875 173.40039,755.15625 V 131.55469 Z m -25.48437,67.36523 v 66.33594 h 15.66406 c -0.0385,4.72749 -0.0645,0.92364 -0.0645,5.48828 0,4.74575 1.14068,6.16602 6.1289,6.16602 h 6.12891 l 0.0488,74.14844 -0.15625,73.61523 16.07422,12.74219 c 0,0 -0.80008,1.80662 -2.95899,4.30078 -2.54113,3.65591 -2.37303,8.8528 -1.23242,11.22656 1.14061,2.37376 3.77681,4.96642 7.13281,5.58789 3.06238,0.19094 8.3915,-1.30237 11.0293,-6.00195 1.85278,-3.30106 2.78733,-6.58569 2.07617,-7.29688 -3.32695,0.54566 -5.69354,2.47563 -7.8125,4.91407 -0.51146,1.63423 -2.74663,2.66544 -4.03711,2.6289 -1.29048,-0.0365 -2.31564,-0.33896 -3.01367,-3.30859 -0.54551,-2.32073 2.86443,-6.79611 7.62305,-12.05078 l 15.44531,-12.74219 -0.10742,-147.76367 h 6.1289 c 4.84513,0 6.12696,-1.45921 6.12696,-5.71875 v -5.93555 h 93.25 v 289.85547 h -87.77344 v 144.92773 l 132.67969,75.52344 132.68164,-75.52344 V 479.58789 H 544.9082 V 189.73242 h 93.26368 v 6.08399 c 0,4.53111 1.09191,5.57031 5.86132,5.57031 h 5.86524 l -2.00196,108.12695 15.71094,12.9043 c 1.33112,2.39143 4.42566,6.39201 6.87696,8.50976 3.66948,3.17014 3.94325,4.36933 1.55078,6.79297 -2.40292,2.43425 -3.62987,1.98752 -7.08985,-2.59179 -4.89878,-6.48371 -7.8578,-4.87809 -5.83789,3.16992 1.60212,6.3809 10.99696,9.95901 16.73438,6.36914 5.76081,-3.60446 5.83829,-14.24273 0.13476,-18.54492 l -4.91015,-3.70508 19.77343,-12.88281 -2.05273,-108.14844 h 5.91601 c 4.76941,0 5.86524,-1.0392 5.86524,-5.57031 0,-3.4665 1.2619,-6.08399 3.3418,-6.08399 h 14.44531 V 123.39648 H 544.9082 455.0918 Z m 20.19922,11.22657 h 36.69531 l -18.34766,13.75976 z m 57.96484,0 h 36.79492 l -18.39648,13.79883 z m 58.51563,0 h 36.79492 l -18.31055,13.86328 z m 126.61132,0 h 36.68555 l -18.25781,13.82226 z m 58.51368,0 h 36.13671 c -6.91478,6.16351 -17.98242,13.61523 -17.98242,13.61523 z m 58.51562,0 h 36.13672 l -17.98438,13.61523 z m -371.47852,8.18359 18.57032,13.92969 -18.39649,13.79687 z m 58.96485,0 18.12109,13.58984 -18.84765,14.13672 -17.75977,-14.07031 z m 58.06445,0 18.48438,13.86328 -18.31055,13.86328 -18.96289,-13.45703 z m 185.02344,0 18.20117,13.65625 -17.92383,14.07031 -18.625,-13.96679 z m 58.51367,0 17.92969,13.86328 -17.65235,13.86328 -18.62304,-13.96679 z m 58.51563,0 0.27539,27.72656 -18.6211,-13.96679 z m -254.44922,8.10547 v 11.30664 l -7.53907,-5.65234 z m 89.8164,0.082 7.56641,5.67578 -7.56641,5.72852 z m -166.3164,13.68945 18.43554,13.82618 h -36.69531 z m 58.10156,0.0273 18.39844,13.79883 h -36.79492 z m 126.55664,0.041 18.34375,13.75782 H 544.9082 Z m 58.51562,0 18.34376,13.75782 h -36.68555 z m -301.9121,0.0996 18.21093,13.65821 h -36.24804 z m 360.15234,0.10547 18.06836,13.55274 H 661.9375 Z m -203.375,24.77539 h 46.69531 l -23.31836,20.4375 z m -7.25,10.25781 21.08008,18.34571 -21.08008,18.34765 z m 61.23633,0.49024 v 36.24023 l -21.12891,-18.39258 z m -214.25606,0.90625 26.33828,0 -0.40498,127.02148 c -10.03007,2.68755 -15.31961,2.68115 -25.32582,0 z m 341.35855,0 23.29893,0 0.60748,88.02344 c -11.00559,2.94894 -13.98882,2.94894 -24.99442,0 z m -157.72163,25.20117 24.4414,21.32227 -24.4414,21.3164 -24.54688,-21.3164 z m -30.61719,32.54492 21.10742,18.3711 -21.10742,18.37304 z m 61.23633,0 v 36.74414 l -21.10547,-18.37304 z m -30.61914,26.65039 24.49609,21.32032 -24.49609,21.31836 -24.49414,-21.31836 z m -30.61719,32.54688 21.10742,18.37109 -21.10742,18.3711 z m 61.23633,0 v 36.74219 l -21.10547,-18.3711 z m -30.61914,26.65039 24.49609,21.31836 -24.49609,21.31836 -24.49414,-21.31836 z m -30.61719,32.54492 21.10742,18.37109 -21.10742,18.3711 z m 61.23633,0 v 36.74219 l -21.10547,-18.3711 z m -30.61914,26.64844 24.49609,21.32031 -24.49609,21.32031 -24.49414,-21.32031 z m -275.56641,12.13476 v 313.33203 l 275.56641,159.3125 275.56836,-159.3125 V 416.30859 l -107.16602,63.2793 V 645.94922 L 499.99805,739.8457 331.59766,645.94922 V 479.58789 Z m 244.94922,20.41407 20.82812,18.61132 -20.82812,18.13086 z m 61.23633,0 v 36.74218 l -20.82813,-18.13086 z m -30.61914,27.36132 17.35156,15.50391 h -34.70117 z" />
  </g>
</svg>
